<mxfile host="app.diagrams.net" agent="Mozilla/5.0 (Windows NT 10.0; Win64; x64) AppleWebKit/537.36 (KHTML, like Gecko) Chrome/126.0.0.0 Safari/537.36" version="24.7.4">
  <diagram name="Página-1" id="LBwJxdtY1b2Yh3VoJ_7q">
    <mxGraphModel dx="819" dy="446" grid="1" gridSize="10" guides="1" tooltips="1" connect="1" arrows="1" fold="1" page="1" pageScale="1" pageWidth="827" pageHeight="1169" math="0" shadow="0">
      <root>
        <mxCell id="0" />
        <mxCell id="1" parent="0" />
        <mxCell id="06UfpMFrfyFAeGku5Hou-1" value="Ordens de Serviço&lt;div&gt;MER DER Conceitual&lt;/div&gt;" style="text;html=1;align=center;verticalAlign=middle;whiteSpace=wrap;rounded=0;" vertex="1" parent="1">
          <mxGeometry x="339" y="40" width="150" height="60" as="geometry" />
        </mxCell>
        <mxCell id="06UfpMFrfyFAeGku5Hou-46" value="1" style="edgeStyle=orthogonalEdgeStyle;rounded=0;orthogonalLoop=1;jettySize=auto;html=1;exitX=0.5;exitY=0;exitDx=0;exitDy=0;entryX=0;entryY=0.5;entryDx=0;entryDy=0;endArrow=none;endFill=0;" edge="1" parent="1" source="06UfpMFrfyFAeGku5Hou-3" target="06UfpMFrfyFAeGku5Hou-44">
          <mxGeometry relative="1" as="geometry" />
        </mxCell>
        <mxCell id="06UfpMFrfyFAeGku5Hou-50" style="edgeStyle=orthogonalEdgeStyle;rounded=0;orthogonalLoop=1;jettySize=auto;html=1;exitX=0.25;exitY=0;exitDx=0;exitDy=0;entryX=0.5;entryY=1;entryDx=0;entryDy=0;endArrow=none;endFill=0;" edge="1" parent="1" source="06UfpMFrfyFAeGku5Hou-3" target="06UfpMFrfyFAeGku5Hou-48">
          <mxGeometry relative="1" as="geometry" />
        </mxCell>
        <mxCell id="06UfpMFrfyFAeGku5Hou-3" value="Colaborador" style="whiteSpace=wrap;html=1;align=center;fillColor=#fff2cc;strokeColor=#d6b656;" vertex="1" parent="1">
          <mxGeometry x="204" y="372" width="100" height="40" as="geometry" />
        </mxCell>
        <mxCell id="06UfpMFrfyFAeGku5Hou-4" value="OS" style="whiteSpace=wrap;html=1;align=center;fillColor=#fff2cc;strokeColor=#d6b656;" vertex="1" parent="1">
          <mxGeometry x="526" y="375" width="100" height="40" as="geometry" />
        </mxCell>
        <mxCell id="06UfpMFrfyFAeGku5Hou-5" value="Comentario" style="whiteSpace=wrap;html=1;align=center;fillColor=#fff2cc;strokeColor=#d6b656;" vertex="1" parent="1">
          <mxGeometry x="350" y="240" width="100" height="40" as="geometry" />
        </mxCell>
        <mxCell id="06UfpMFrfyFAeGku5Hou-24" style="rounded=0;orthogonalLoop=1;jettySize=auto;html=1;exitX=0.5;exitY=0;exitDx=0;exitDy=0;entryX=0.5;entryY=1;entryDx=0;entryDy=0;endArrow=none;endFill=0;" edge="1" parent="1" source="06UfpMFrfyFAeGku5Hou-6" target="06UfpMFrfyFAeGku5Hou-3">
          <mxGeometry relative="1" as="geometry" />
        </mxCell>
        <mxCell id="06UfpMFrfyFAeGku5Hou-6" value="matricula" style="ellipse;whiteSpace=wrap;html=1;align=center;fontStyle=4;fillColor=#f8cecc;strokeColor=#b85450;" vertex="1" parent="1">
          <mxGeometry x="114" y="440" width="60" height="30" as="geometry" />
        </mxCell>
        <mxCell id="06UfpMFrfyFAeGku5Hou-7" value="nome" style="ellipse;whiteSpace=wrap;html=1;align=center;fillColor=#d5e8d4;strokeColor=#82b366;" vertex="1" parent="1">
          <mxGeometry x="164" y="480" width="60" height="20" as="geometry" />
        </mxCell>
        <mxCell id="06UfpMFrfyFAeGku5Hou-8" value="cargo" style="ellipse;whiteSpace=wrap;html=1;align=center;fillColor=#d5e8d4;strokeColor=#82b366;" vertex="1" parent="1">
          <mxGeometry x="234" y="480" width="40" height="20" as="geometry" />
        </mxCell>
        <mxCell id="06UfpMFrfyFAeGku5Hou-9" value="setor" style="ellipse;whiteSpace=wrap;html=1;align=center;fillColor=#d5e8d4;strokeColor=#82b366;" vertex="1" parent="1">
          <mxGeometry x="284" y="480" width="50" height="20" as="geometry" />
        </mxCell>
        <mxCell id="06UfpMFrfyFAeGku5Hou-10" value="pin" style="ellipse;whiteSpace=wrap;html=1;align=center;fillColor=#d5e8d4;strokeColor=#82b366;" vertex="1" parent="1">
          <mxGeometry x="324" y="445" width="50" height="20" as="geometry" />
        </mxCell>
        <mxCell id="06UfpMFrfyFAeGku5Hou-11" value="id" style="ellipse;whiteSpace=wrap;html=1;align=center;fontStyle=4;fillColor=#f8cecc;strokeColor=#b85450;" vertex="1" parent="1">
          <mxGeometry x="480" y="435" width="46" height="20" as="geometry" />
        </mxCell>
        <mxCell id="06UfpMFrfyFAeGku5Hou-12" value="descricao" style="ellipse;whiteSpace=wrap;html=1;align=center;fillColor=#d5e8d4;strokeColor=#82b366;" vertex="1" parent="1">
          <mxGeometry x="506" y="460" width="65" height="20" as="geometry" />
        </mxCell>
        <mxCell id="06UfpMFrfyFAeGku5Hou-15" value="&lt;span style=&quot;border-bottom: 1px dotted&quot;&gt;colaborador&lt;/span&gt;" style="ellipse;whiteSpace=wrap;html=1;align=center;fillColor=#dae8fc;strokeColor=#6c8ebf;" vertex="1" parent="1">
          <mxGeometry x="616" y="460" width="80" height="30" as="geometry" />
        </mxCell>
        <mxCell id="06UfpMFrfyFAeGku5Hou-16" value="&lt;span style=&quot;border-bottom: 1px dotted&quot;&gt;executor&lt;/span&gt;" style="ellipse;whiteSpace=wrap;html=1;align=center;fillColor=#dae8fc;strokeColor=#6c8ebf;" vertex="1" parent="1">
          <mxGeometry x="546" y="480" width="80" height="25" as="geometry" />
        </mxCell>
        <mxCell id="06UfpMFrfyFAeGku5Hou-17" value="abertura" style="ellipse;whiteSpace=wrap;html=1;align=center;fillColor=#d5e8d4;strokeColor=#82b366;" vertex="1" parent="1">
          <mxGeometry x="681" y="405" width="65" height="20" as="geometry" />
        </mxCell>
        <mxCell id="06UfpMFrfyFAeGku5Hou-18" value="encerramento" style="ellipse;whiteSpace=wrap;html=1;align=center;fillColor=#d5e8d4;strokeColor=#82b366;" vertex="1" parent="1">
          <mxGeometry x="666" y="435" width="80" height="20" as="geometry" />
        </mxCell>
        <mxCell id="06UfpMFrfyFAeGku5Hou-19" value="id" style="ellipse;whiteSpace=wrap;html=1;align=center;fontStyle=4;fillColor=#f8cecc;strokeColor=#b85450;" vertex="1" parent="1">
          <mxGeometry x="293" y="200" width="46" height="20" as="geometry" />
        </mxCell>
        <mxCell id="06UfpMFrfyFAeGku5Hou-20" value="&lt;span style=&quot;border-bottom: 1px dotted&quot;&gt;os&lt;/span&gt;" style="ellipse;whiteSpace=wrap;html=1;align=center;fillColor=#dae8fc;strokeColor=#6c8ebf;" vertex="1" parent="1">
          <mxGeometry x="313" y="170" width="57" height="20" as="geometry" />
        </mxCell>
        <mxCell id="06UfpMFrfyFAeGku5Hou-21" value="&lt;span style=&quot;border-bottom: 1px dotted&quot;&gt;colaborador&lt;/span&gt;" style="ellipse;whiteSpace=wrap;html=1;align=center;fillColor=#dae8fc;strokeColor=#6c8ebf;" vertex="1" parent="1">
          <mxGeometry x="374" y="140" width="80" height="30" as="geometry" />
        </mxCell>
        <mxCell id="06UfpMFrfyFAeGku5Hou-22" value="data" style="ellipse;whiteSpace=wrap;html=1;align=center;fillColor=#d5e8d4;strokeColor=#82b366;" vertex="1" parent="1">
          <mxGeometry x="454" y="180" width="50" height="20" as="geometry" />
        </mxCell>
        <mxCell id="06UfpMFrfyFAeGku5Hou-23" value="comentario" style="ellipse;whiteSpace=wrap;html=1;align=center;fillColor=#d5e8d4;strokeColor=#82b366;" vertex="1" parent="1">
          <mxGeometry x="480" y="210" width="70" height="20" as="geometry" />
        </mxCell>
        <mxCell id="06UfpMFrfyFAeGku5Hou-25" style="rounded=0;orthogonalLoop=1;jettySize=auto;html=1;exitX=0.5;exitY=0;exitDx=0;exitDy=0;entryX=0.5;entryY=1;entryDx=0;entryDy=0;endArrow=none;endFill=0;" edge="1" parent="1" source="06UfpMFrfyFAeGku5Hou-7" target="06UfpMFrfyFAeGku5Hou-3">
          <mxGeometry relative="1" as="geometry">
            <mxPoint x="154" y="450" as="sourcePoint" />
            <mxPoint x="264" y="425" as="targetPoint" />
          </mxGeometry>
        </mxCell>
        <mxCell id="06UfpMFrfyFAeGku5Hou-26" style="rounded=0;orthogonalLoop=1;jettySize=auto;html=1;exitX=0.5;exitY=0;exitDx=0;exitDy=0;entryX=0.5;entryY=1;entryDx=0;entryDy=0;endArrow=none;endFill=0;" edge="1" parent="1" source="06UfpMFrfyFAeGku5Hou-8" target="06UfpMFrfyFAeGku5Hou-3">
          <mxGeometry relative="1" as="geometry">
            <mxPoint x="204" y="490" as="sourcePoint" />
            <mxPoint x="264" y="425" as="targetPoint" />
          </mxGeometry>
        </mxCell>
        <mxCell id="06UfpMFrfyFAeGku5Hou-27" style="rounded=0;orthogonalLoop=1;jettySize=auto;html=1;exitX=0.5;exitY=0;exitDx=0;exitDy=0;entryX=0.5;entryY=1;entryDx=0;entryDy=0;endArrow=none;endFill=0;" edge="1" parent="1" source="06UfpMFrfyFAeGku5Hou-9" target="06UfpMFrfyFAeGku5Hou-3">
          <mxGeometry relative="1" as="geometry">
            <mxPoint x="264" y="490" as="sourcePoint" />
            <mxPoint x="264" y="425" as="targetPoint" />
          </mxGeometry>
        </mxCell>
        <mxCell id="06UfpMFrfyFAeGku5Hou-28" style="rounded=0;orthogonalLoop=1;jettySize=auto;html=1;exitX=0.5;exitY=0;exitDx=0;exitDy=0;entryX=0.5;entryY=1;entryDx=0;entryDy=0;endArrow=none;endFill=0;" edge="1" parent="1" source="06UfpMFrfyFAeGku5Hou-10" target="06UfpMFrfyFAeGku5Hou-3">
          <mxGeometry relative="1" as="geometry">
            <mxPoint x="319" y="490" as="sourcePoint" />
            <mxPoint x="264" y="425" as="targetPoint" />
          </mxGeometry>
        </mxCell>
        <mxCell id="06UfpMFrfyFAeGku5Hou-29" style="rounded=0;orthogonalLoop=1;jettySize=auto;html=1;exitX=0.5;exitY=0;exitDx=0;exitDy=0;entryX=0.5;entryY=1;entryDx=0;entryDy=0;endArrow=none;endFill=0;" edge="1" parent="1" source="06UfpMFrfyFAeGku5Hou-5" target="06UfpMFrfyFAeGku5Hou-19">
          <mxGeometry relative="1" as="geometry">
            <mxPoint x="395" y="410" as="sourcePoint" />
            <mxPoint x="300" y="380" as="targetPoint" />
          </mxGeometry>
        </mxCell>
        <mxCell id="06UfpMFrfyFAeGku5Hou-30" style="rounded=0;orthogonalLoop=1;jettySize=auto;html=1;exitX=0.5;exitY=0;exitDx=0;exitDy=0;entryX=0.5;entryY=1;entryDx=0;entryDy=0;endArrow=none;endFill=0;" edge="1" parent="1" source="06UfpMFrfyFAeGku5Hou-5" target="06UfpMFrfyFAeGku5Hou-20">
          <mxGeometry relative="1" as="geometry">
            <mxPoint x="410" y="250" as="sourcePoint" />
            <mxPoint x="326" y="230" as="targetPoint" />
          </mxGeometry>
        </mxCell>
        <mxCell id="06UfpMFrfyFAeGku5Hou-31" style="rounded=0;orthogonalLoop=1;jettySize=auto;html=1;exitX=0.5;exitY=0;exitDx=0;exitDy=0;entryX=0.5;entryY=1;entryDx=0;entryDy=0;endArrow=none;endFill=0;" edge="1" parent="1" source="06UfpMFrfyFAeGku5Hou-5" target="06UfpMFrfyFAeGku5Hou-21">
          <mxGeometry relative="1" as="geometry">
            <mxPoint x="420" y="260" as="sourcePoint" />
            <mxPoint x="336" y="240" as="targetPoint" />
          </mxGeometry>
        </mxCell>
        <mxCell id="06UfpMFrfyFAeGku5Hou-32" style="rounded=0;orthogonalLoop=1;jettySize=auto;html=1;exitX=0.5;exitY=0;exitDx=0;exitDy=0;entryX=0.5;entryY=1;entryDx=0;entryDy=0;endArrow=none;endFill=0;" edge="1" parent="1" source="06UfpMFrfyFAeGku5Hou-5" target="06UfpMFrfyFAeGku5Hou-22">
          <mxGeometry relative="1" as="geometry">
            <mxPoint x="430" y="270" as="sourcePoint" />
            <mxPoint x="346" y="250" as="targetPoint" />
          </mxGeometry>
        </mxCell>
        <mxCell id="06UfpMFrfyFAeGku5Hou-33" style="rounded=0;orthogonalLoop=1;jettySize=auto;html=1;exitX=0;exitY=0.5;exitDx=0;exitDy=0;entryX=0.5;entryY=0;entryDx=0;entryDy=0;endArrow=none;endFill=0;" edge="1" parent="1" source="06UfpMFrfyFAeGku5Hou-23" target="06UfpMFrfyFAeGku5Hou-5">
          <mxGeometry relative="1" as="geometry">
            <mxPoint x="440" y="280" as="sourcePoint" />
            <mxPoint x="356" y="260" as="targetPoint" />
          </mxGeometry>
        </mxCell>
        <mxCell id="06UfpMFrfyFAeGku5Hou-34" style="rounded=0;orthogonalLoop=1;jettySize=auto;html=1;exitX=0.5;exitY=1;exitDx=0;exitDy=0;entryX=0.5;entryY=0;entryDx=0;entryDy=0;endArrow=none;endFill=0;" edge="1" parent="1" source="06UfpMFrfyFAeGku5Hou-4" target="06UfpMFrfyFAeGku5Hou-11">
          <mxGeometry relative="1" as="geometry">
            <mxPoint x="506" y="335" as="sourcePoint" />
            <mxPoint x="422" y="315" as="targetPoint" />
          </mxGeometry>
        </mxCell>
        <mxCell id="06UfpMFrfyFAeGku5Hou-35" style="rounded=0;orthogonalLoop=1;jettySize=auto;html=1;exitX=0.5;exitY=1;exitDx=0;exitDy=0;entryX=0.5;entryY=0;entryDx=0;entryDy=0;endArrow=none;endFill=0;" edge="1" parent="1" source="06UfpMFrfyFAeGku5Hou-4" target="06UfpMFrfyFAeGku5Hou-12">
          <mxGeometry relative="1" as="geometry">
            <mxPoint x="516" y="345" as="sourcePoint" />
            <mxPoint x="432" y="325" as="targetPoint" />
          </mxGeometry>
        </mxCell>
        <mxCell id="06UfpMFrfyFAeGku5Hou-36" style="rounded=0;orthogonalLoop=1;jettySize=auto;html=1;exitX=0.5;exitY=1;exitDx=0;exitDy=0;entryX=0.5;entryY=0;entryDx=0;entryDy=0;endArrow=none;endFill=0;" edge="1" parent="1" source="06UfpMFrfyFAeGku5Hou-4" target="06UfpMFrfyFAeGku5Hou-16">
          <mxGeometry relative="1" as="geometry">
            <mxPoint x="526" y="355" as="sourcePoint" />
            <mxPoint x="442" y="335" as="targetPoint" />
          </mxGeometry>
        </mxCell>
        <mxCell id="06UfpMFrfyFAeGku5Hou-37" style="rounded=0;orthogonalLoop=1;jettySize=auto;html=1;entryX=0.5;entryY=0;entryDx=0;entryDy=0;endArrow=none;endFill=0;" edge="1" parent="1" target="06UfpMFrfyFAeGku5Hou-15">
          <mxGeometry relative="1" as="geometry">
            <mxPoint x="576" y="415" as="sourcePoint" />
            <mxPoint x="452" y="345" as="targetPoint" />
          </mxGeometry>
        </mxCell>
        <mxCell id="06UfpMFrfyFAeGku5Hou-38" style="rounded=0;orthogonalLoop=1;jettySize=auto;html=1;exitX=0.5;exitY=0;exitDx=0;exitDy=0;entryX=1;entryY=0.5;entryDx=0;entryDy=0;endArrow=none;endFill=0;" edge="1" parent="1" source="06UfpMFrfyFAeGku5Hou-18" target="06UfpMFrfyFAeGku5Hou-4">
          <mxGeometry relative="1" as="geometry">
            <mxPoint x="546" y="375" as="sourcePoint" />
            <mxPoint x="462" y="355" as="targetPoint" />
          </mxGeometry>
        </mxCell>
        <mxCell id="06UfpMFrfyFAeGku5Hou-39" style="rounded=0;orthogonalLoop=1;jettySize=auto;html=1;exitX=0.5;exitY=0;exitDx=0;exitDy=0;entryX=1;entryY=0.5;entryDx=0;entryDy=0;endArrow=none;endFill=0;" edge="1" parent="1" source="06UfpMFrfyFAeGku5Hou-17" target="06UfpMFrfyFAeGku5Hou-4">
          <mxGeometry relative="1" as="geometry">
            <mxPoint x="556" y="385" as="sourcePoint" />
            <mxPoint x="472" y="365" as="targetPoint" />
          </mxGeometry>
        </mxCell>
        <mxCell id="06UfpMFrfyFAeGku5Hou-40" value="abre" style="shape=rhombus;perimeter=rhombusPerimeter;whiteSpace=wrap;html=1;align=center;fillColor=#ffe6cc;strokeColor=#d79b00;" vertex="1" parent="1">
          <mxGeometry x="384" y="372" width="60" height="40" as="geometry" />
        </mxCell>
        <mxCell id="06UfpMFrfyFAeGku5Hou-42" value="N" style="rounded=0;orthogonalLoop=1;jettySize=auto;html=1;exitX=0.01;exitY=0.433;exitDx=0;exitDy=0;entryX=1;entryY=0.5;entryDx=0;entryDy=0;endArrow=none;endFill=0;exitPerimeter=0;" edge="1" parent="1" source="06UfpMFrfyFAeGku5Hou-4" target="06UfpMFrfyFAeGku5Hou-40">
          <mxGeometry x="-0.1073" y="-12" relative="1" as="geometry">
            <mxPoint x="586" y="425" as="sourcePoint" />
            <mxPoint x="513" y="445" as="targetPoint" />
            <mxPoint as="offset" />
          </mxGeometry>
        </mxCell>
        <mxCell id="06UfpMFrfyFAeGku5Hou-43" value="1" style="rounded=0;orthogonalLoop=1;jettySize=auto;html=1;exitX=0;exitY=0.5;exitDx=0;exitDy=0;entryX=1;entryY=0.5;entryDx=0;entryDy=0;endArrow=none;endFill=0;" edge="1" parent="1" source="06UfpMFrfyFAeGku5Hou-40" target="06UfpMFrfyFAeGku5Hou-3">
          <mxGeometry x="0.0872" y="-14" relative="1" as="geometry">
            <mxPoint x="537" y="402" as="sourcePoint" />
            <mxPoint x="454" y="402" as="targetPoint" />
            <mxPoint as="offset" />
          </mxGeometry>
        </mxCell>
        <mxCell id="06UfpMFrfyFAeGku5Hou-47" value="N" style="edgeStyle=orthogonalEdgeStyle;rounded=0;orthogonalLoop=1;jettySize=auto;html=1;exitX=1;exitY=0.5;exitDx=0;exitDy=0;endArrow=none;endFill=0;" edge="1" parent="1" source="06UfpMFrfyFAeGku5Hou-44" target="06UfpMFrfyFAeGku5Hou-4">
          <mxGeometry relative="1" as="geometry" />
        </mxCell>
        <mxCell id="06UfpMFrfyFAeGku5Hou-44" value="executa" style="shape=rhombus;perimeter=rhombusPerimeter;whiteSpace=wrap;html=1;align=center;fillColor=#ffe6cc;strokeColor=#d79b00;" vertex="1" parent="1">
          <mxGeometry x="384" y="300" width="60" height="40" as="geometry" />
        </mxCell>
        <mxCell id="06UfpMFrfyFAeGku5Hou-49" value="N" style="edgeStyle=orthogonalEdgeStyle;rounded=0;orthogonalLoop=1;jettySize=auto;html=1;exitX=1;exitY=0.5;exitDx=0;exitDy=0;entryX=0;entryY=0.5;entryDx=0;entryDy=0;endArrow=none;endFill=0;" edge="1" parent="1" source="06UfpMFrfyFAeGku5Hou-48" target="06UfpMFrfyFAeGku5Hou-5">
          <mxGeometry relative="1" as="geometry" />
        </mxCell>
        <mxCell id="06UfpMFrfyFAeGku5Hou-48" value="faz" style="shape=rhombus;perimeter=rhombusPerimeter;whiteSpace=wrap;html=1;align=center;fillColor=#ffe6cc;strokeColor=#d79b00;" vertex="1" parent="1">
          <mxGeometry x="203" y="240" width="54" height="40" as="geometry" />
        </mxCell>
        <mxCell id="06UfpMFrfyFAeGku5Hou-53" value="N" style="edgeStyle=orthogonalEdgeStyle;rounded=0;orthogonalLoop=1;jettySize=auto;html=1;exitX=0;exitY=0.5;exitDx=0;exitDy=0;entryX=1;entryY=0.5;entryDx=0;entryDy=0;endArrow=none;endFill=0;" edge="1" parent="1" source="06UfpMFrfyFAeGku5Hou-51" target="06UfpMFrfyFAeGku5Hou-5">
          <mxGeometry relative="1" as="geometry" />
        </mxCell>
        <mxCell id="06UfpMFrfyFAeGku5Hou-51" value="possui" style="shape=rhombus;perimeter=rhombusPerimeter;whiteSpace=wrap;html=1;align=center;fillColor=#ffe6cc;strokeColor=#d79b00;" vertex="1" parent="1">
          <mxGeometry x="572" y="240" width="54" height="40" as="geometry" />
        </mxCell>
        <mxCell id="06UfpMFrfyFAeGku5Hou-52" value="1" style="edgeStyle=orthogonalEdgeStyle;rounded=0;orthogonalLoop=1;jettySize=auto;html=1;exitX=0.75;exitY=0;exitDx=0;exitDy=0;entryX=0.525;entryY=1.082;entryDx=0;entryDy=0;entryPerimeter=0;endArrow=none;endFill=0;" edge="1" parent="1" source="06UfpMFrfyFAeGku5Hou-4" target="06UfpMFrfyFAeGku5Hou-51">
          <mxGeometry relative="1" as="geometry" />
        </mxCell>
      </root>
    </mxGraphModel>
  </diagram>
</mxfile>
